C:\GBW_MyPrograms\PredSimResults\gait1018_esmac\gait1018_esmac_v37.mot
version=1
nRows=11
nColumns=29
inDegrees=yes
endheader
                time	         pelvis_tilt	           pelvis_tx	           pelvis_ty	       hip_flexion_l	       hip_flexion_r	        knee_angle_l	        knee_angle_r	       ankle_angle_l	       ankle_angle_r	    lumbar_extension	hamstrings_r/activation	bifemsh_r/activation	glut_max_r/activation	iliopsoas_r/activation	rect_fem_r/activation	  vasti_r/activation	gastroc_r/activation	 soleus_r/activation	tib_ant_r/activation	hamstrings_l/activation	bifemsh_l/activation	glut_max_l/activation	iliopsoas_l/activation	rect_fem_l/activation	  vasti_l/activation	gastroc_l/activation	 soleus_l/activation	tib_ant_l/activation	
          1.03262815	         -8.32219709	          1.29078519	          0.89248338	         -4.74283285	         34.59649272	        -16.59303408	        -13.48541467	          7.81747253	         11.13345835	          1.54192252	          0.13236186	          0.01134399	          0.06961254	          0.01634773	          0.01406084	          0.03735789	          0.01172153	          0.01323673	          0.20733729	          0.01000027	          0.01000183	          0.01438951	          0.02592713	          0.10068863	          0.09526105	          0.22830962	          0.29529417	          0.01000004	
          1.04295444	         -8.27532317	          1.30647970	          0.89183258	         -5.20588119	         33.91502699	        -17.55427218	        -13.20799717	          6.62562333	         10.54881818	          1.81191747	          0.11292731	          0.01000243	          0.10250850	          0.01394735	          0.01199631	          0.07604894	          0.01000047	          0.01129316	          0.28474388	          0.01000603	          0.01001528	          0.03186878	          0.02212021	          0.08590417	          0.10193539	          0.19478865	          0.25332804	          0.01000005	
          1.05328072	         -8.22547547	          1.32244129	          0.89119228	         -5.51682504	         33.15650946	        -18.79119385	        -13.48719722	          5.28291348	          9.65737496	          2.11254536	          0.09634579	          0.01000098	          0.08745694	          0.01189944	          0.01032902	          0.12298358	          0.01609737	          0.01540067	          0.30185913	          0.02211555	          0.01175425	          0.11440494	          0.01887230	          0.07329058	          0.08696804	          0.16618710	          0.21613092	          0.01000005	
          1.06360700	         -8.17535675	          1.33851137	          0.89069275	         -5.65855079	         32.31045073	        -20.29002976	        -13.86169827	          3.71581844	          8.81091462	          2.42700377	          0.08219899	          0.01374215	          0.10439464	          0.01015224	          0.01000012	          0.14862434	          0.01373376	          0.01313934	          0.43954648	          0.01886852	          0.01002893	          0.17558404	          0.01610125	          0.06252912	          0.09189941	          0.14178521	          0.18439558	          0.01000004	
          1.07393328	         -8.12913227	          1.35443998	          0.89052296	         -5.62223272	         31.50408884	        -21.99078475	        -14.28080925	          1.81707501	          7.91768079	          2.72848244	          0.07012945	          0.01172459	          0.12849005	          0.01000009	          0.01000034	          0.20626854	          0.01171727	          0.01121013	          0.48304440	          0.01609825	          0.01000199	          0.18874164	          0.01373713	          0.05334783	          0.07840572	          0.12096634	          0.15732006	          0.01000003	
          1.08425956	         -8.08817327	          1.37006907	          0.89078177	         -5.38238122	         30.79824324	        -23.89341623	        -14.85889001	         -0.48285995	          7.22923360	          2.99910617	          0.05983248	          0.01000356	          0.16057882	          0.01000013	          0.01000028	          0.26063466	          0.01000076	          0.01807298	          0.54188459	          0.01373528	          0.01000252	          0.16540705	          0.01172025	          0.04551467	          0.06689319	          0.10320439	          0.13422015	          0.01000010	
          1.09458584	         -8.05328927	          1.38534523	          0.89144412	         -4.92194129	         30.12822344	        -26.01598389	        -15.47813342	         -3.08970126	          6.78999823	          3.23389266	          0.06356120	          0.01000133	          0.18552699	          0.01000011	          0.01000025	          0.30578592	          0.01001049	          0.02065741	          0.57779365	          0.01600835	          0.01000216	          0.14111978	          0.01000064	          0.03883170	          0.05707104	          0.08805049	          0.11451209	          0.21943205	
          1.10491212	         -8.02514151	          1.40021172	          0.89234513	         -4.28032759	         29.43699571	        -28.28741468	        -16.02540281	         -5.35604688	          6.55857388	          3.42686234	          0.06214166	          0.01000104	          0.19345805	          0.01000008	          0.01000018	          0.33084301	          0.01000041	          0.01812169	          0.59596315	          0.01365879	          0.01000500	          0.12039866	          0.01000045	          0.03313019	          0.04869111	          0.07512171	          0.09769784	          0.18721200	
          1.11523841	         -8.00409590	          1.41464748	          0.89340246	         -3.50923624	         28.70756289	        -30.53014023	        -16.46046175	         -6.50566310	          6.47278659	          3.57613490	          0.06432822	          0.01000133	          0.18505375	          0.01000009	          0.01000021	          0.33564146	          0.01000055	          0.02212230	          0.59828387	          0.01165496	          0.01000153	          0.10272008	          0.01000064	          0.02826625	          0.04154163	          0.06409131	          0.08335249	          0.20510561	
          1.12556469	         -7.98927107	          1.42867462	          0.89463201	         -2.59968605	         27.94338123	        -32.75891882	        -16.78836087	         -7.00072766	          6.49032873	          3.68396905	          0.06428519	          0.01000135	          0.17215218	          0.01000010	          0.01000022	          0.33000322	          0.01000036	          0.03082131	          0.58822986	          0.01131580	          0.01000507	          0.08763731	          0.01000063	          0.02416688	          0.03544193	          0.05468056	          0.07111353	          0.23109253	
          1.13589097	         -7.97973211	          1.44232438	          0.89601307	         -1.55258455	         27.15423133	        -34.97908064	        -17.02850445	         -7.08604550	          6.59288243	          3.75355179	          0.06446019	          0.01000099	          0.16249081	          0.01000009	          0.01000023	          0.31692515	          0.01000050	          0.03974171	          0.57380231	          0.01874892	          0.01000292	          0.07476920	          0.01000052	          0.05793457	          0.03023786	          0.04665166	          0.06067167	          0.23225837	
